<svg width="357" height="200" viewBox="0 0 357 200" fill="none" xmlns="http://www.w3.org/2000/svg">
<g clip-path="url(#clip0_2773_2605)">
<path d="M310.532 183.007L272.248 135.942L265.683 95.8077L204.122 142.426L244.026 153.717L298.509 187.591L310.532 183.007Z" fill="#EBD9DD" stroke="black" stroke-width="2" stroke-miterlimit="10" stroke-linecap="round" stroke-linejoin="round"/>
<path d="M264.193 156.529C264.193 156.529 261.465 148.48 264.449 143.337C266.836 139.313 285.85 126.233 285.85 126.233C285.85 126.233 292.586 121.761 298.213 130.816C303.841 139.872 297.787 147.921 297.787 147.921C297.787 147.921 271.781 174.863 264.193 156.529Z" fill="white"/>
<path d="M61.5605 195.416C117.664 157.742 147.165 155.729 203.269 118.055C265.597 70.4304 263.039 24.1475 308.058 6.7076C327.84 -1.0062 342.676 -2.01235 354.954 7.37837C354.954 7.37837 360.069 6.7076 349.497 23.4767C349.497 23.4767 339.691 39.0161 219.81 133.259C219.81 133.259 122.354 199.888 61.5605 195.416Z" fill="#F2F2F2"/>
<path d="M61.5604 195.418C61.5604 195.418 57.8088 190.722 58.3204 184.462C58.7467 178.201 281.371 21.3539 281.371 21.3539C281.371 21.3539 327.925 -13.1905 354.953 7.26786C354.953 7.26786 360.069 6.59709 349.497 23.3662C349.497 23.3662 339.691 38.9056 219.81 133.148C219.81 133.26 120.734 188.486 61.5604 195.418Z" fill="white"/>
<path d="M59.0879 190.609V190.497C59.0879 190.497 191.844 159.866 355.039 7.37844C355.039 7.37844 360.155 6.70767 349.582 23.4768C349.582 23.4768 330.312 51.4254 216.485 135.718C216.485 135.718 126.105 197.317 65.2269 195.864C62.4984 195.864 60.1111 193.74 59.0879 190.609Z" fill="#EBD9DD"/>
<path d="M65.9944 195.64C61.6459 195.528 58.0648 190.945 58.2353 185.243C58.2353 185.019 58.2353 184.684 58.2353 184.46C58.7469 178.2 281.371 21.6879 281.371 21.6879C281.371 21.6879 327.925 -12.8565 354.954 7.60184C354.954 7.60184 378.401 17.5515 216.485 135.718C216.485 135.718 126.873 196.87 65.9944 195.64Z" stroke="black" stroke-width="2" stroke-miterlimit="10" stroke-linecap="round" stroke-linejoin="round"/>
<path d="M284.782 31.0787C284.099 31.0787 283.588 30.2961 283.588 29.5136V28.1721C283.588 27.2777 284.185 26.6069 284.782 26.6069C285.464 26.6069 285.975 27.3895 285.975 28.1721V29.5136C286.061 30.4079 285.464 31.0787 284.782 31.0787Z" fill="black"/>
<path d="M280.348 34.2088C279.666 34.2088 279.154 33.4263 279.154 32.6437V31.3022C279.154 30.4078 279.751 29.7371 280.348 29.7371C281.03 29.7371 281.542 30.5196 281.542 31.3022V32.6437C281.542 33.5381 281.03 34.3206 280.348 34.2088Z" fill="black"/>
<path d="M280.348 34.2088C279.666 34.2088 279.154 33.4263 279.154 32.6437V31.3022C279.154 30.4078 279.751 29.7371 280.348 29.7371C281.03 29.7371 281.542 30.5196 281.542 31.3022V32.6437C281.542 33.5381 281.03 34.3206 280.348 34.2088Z" fill="black"/>
<path d="M275.829 37.451C275.147 37.451 274.636 36.6685 274.636 35.8859V34.5444C274.636 33.65 275.233 32.9792 275.829 32.9792C276.512 32.9792 277.023 33.7618 277.023 34.5444V35.8859C277.108 36.7803 276.512 37.5628 275.829 37.451Z" fill="black"/>
<path d="M275.829 37.451C275.147 37.451 274.636 36.6685 274.636 35.8859V34.5444C274.636 33.65 275.233 32.9792 275.829 32.9792C276.512 32.9792 277.023 33.7618 277.023 34.5444V35.8859C277.108 36.7803 276.512 37.5628 275.829 37.451Z" fill="black"/>
<path d="M271.395 40.693C270.713 40.693 270.201 39.9104 270.201 39.1278V37.7863C270.201 36.892 270.798 36.2212 271.395 36.2212C272.077 36.2212 272.589 37.0037 272.589 37.7863V39.1278C272.589 40.0222 272.077 40.8048 271.395 40.693Z" fill="black"/>
<path d="M271.395 40.693C270.713 40.693 270.201 39.9104 270.201 39.1278V37.7863C270.201 36.892 270.798 36.2212 271.395 36.2212C272.077 36.2212 272.589 37.0037 272.589 37.7863V39.1278C272.589 40.0222 272.077 40.8048 271.395 40.693Z" fill="black"/>
<path d="M266.876 43.9351C266.194 43.9351 265.683 43.1526 265.683 42.37V41.0285C265.683 40.1341 266.279 39.4634 266.876 39.4634C267.558 39.4634 268.07 40.2459 268.07 41.0285V42.37C268.155 43.2644 267.558 44.0469 266.876 43.9351Z" fill="black"/>
<path d="M266.876 43.9351C266.194 43.9351 265.683 43.1526 265.683 42.37V41.0285C265.683 40.1341 266.279 39.4634 266.876 39.4634C267.558 39.4634 268.07 40.2459 268.07 41.0285V42.37C268.155 43.2644 267.558 44.0469 266.876 43.9351Z" fill="black"/>
<path d="M262.443 47.1771C261.761 47.1771 261.249 46.3945 261.249 45.612V44.2704C261.249 43.3761 261.846 42.7053 262.443 42.7053C263.125 42.7053 263.636 43.4879 263.636 44.2704V45.612C263.636 46.5063 263.125 47.2889 262.443 47.1771Z" fill="black"/>
<path d="M262.443 47.1771C261.761 47.1771 261.249 46.3945 261.249 45.612V44.2704C261.249 43.3761 261.846 42.7053 262.443 42.7053C263.125 42.7053 263.636 43.4879 263.636 44.2704V45.612C263.636 46.5063 263.125 47.2889 262.443 47.1771Z" fill="black"/>
<path d="M257.923 50.419C257.241 50.419 256.729 49.6365 256.729 48.8539V47.5124C256.729 46.618 257.326 45.9473 257.923 45.9473C258.605 45.9473 259.117 46.7298 259.117 47.5124V48.8539C259.117 49.7483 258.605 50.5308 257.923 50.419Z" fill="black"/>
<path d="M257.923 50.419C257.241 50.419 256.729 49.6365 256.729 48.8539V47.5124C256.729 46.618 257.326 45.9473 257.923 45.9473C258.605 45.9473 259.117 46.7298 259.117 47.5124V48.8539C259.117 49.7483 258.605 50.5308 257.923 50.419Z" fill="black"/>
<path d="M253.49 53.6612C252.807 53.6612 252.296 52.8787 252.296 52.0961V50.7546C252.296 49.8602 252.893 49.1895 253.49 49.1895C254.172 49.1895 254.683 49.972 254.683 50.7546V52.0961C254.683 52.9905 254.086 53.773 253.49 53.6612Z" fill="black"/>
<path d="M253.49 53.6612C252.807 53.6612 252.296 52.8787 252.296 52.0961V50.7546C252.296 49.8602 252.893 49.1895 253.49 49.1895C254.172 49.1895 254.683 49.972 254.683 50.7546V52.0961C254.683 52.9905 254.086 53.773 253.49 53.6612Z" fill="black"/>
<path d="M248.971 56.9032C248.289 56.9032 247.777 56.1206 247.777 55.338V53.9965C247.777 53.1022 248.374 52.4314 248.971 52.4314C249.653 52.4314 250.165 53.214 250.165 53.9965V55.338C250.165 56.2324 249.653 57.015 248.971 56.9032Z" fill="black"/>
<path d="M248.971 56.9032C248.289 56.9032 247.777 56.1206 247.777 55.338V53.9965C247.777 53.1022 248.374 52.4314 248.971 52.4314C249.653 52.4314 250.165 53.214 250.165 53.9965V55.338C250.165 56.2324 249.653 57.015 248.971 56.9032Z" fill="black"/>
<path d="M244.537 60.1452C243.855 60.1452 243.344 59.3627 243.344 58.5801V57.2386C243.344 56.3442 243.941 55.6735 244.537 55.6735C245.22 55.6735 245.731 56.456 245.731 57.2386V58.5801C245.731 59.4745 245.134 60.257 244.537 60.1452Z" fill="black"/>
<path d="M244.537 60.1452C243.855 60.1452 243.344 59.3627 243.344 58.5801V57.2386C243.344 56.3442 243.941 55.6735 244.537 55.6735C245.22 55.6735 245.731 56.456 245.731 57.2386V58.5801C245.731 59.4745 245.134 60.257 244.537 60.1452Z" fill="black"/>
<path d="M240.018 63.3873C239.336 63.3873 238.824 62.6047 238.824 61.8222V60.4806C238.824 59.5863 239.421 58.9155 240.018 58.9155C240.7 58.9155 241.212 59.6981 241.212 60.4806V61.8222C241.212 62.7165 240.7 63.4991 240.018 63.3873Z" fill="black"/>
<path d="M240.018 63.3873C239.336 63.3873 238.824 62.6047 238.824 61.8222V60.4806C238.824 59.5863 239.421 58.9155 240.018 58.9155C240.7 58.9155 241.212 59.6981 241.212 60.4806V61.8222C241.212 62.7165 240.7 63.4991 240.018 63.3873Z" fill="black"/>
<path d="M235.584 66.6292C234.902 66.6292 234.391 65.8467 234.391 65.0641V63.7226C234.391 62.8282 234.987 62.1575 235.584 62.1575C236.266 62.1575 236.778 62.94 236.778 63.7226V65.0641C236.778 65.9585 236.181 66.741 235.584 66.6292Z" fill="black"/>
<path d="M235.584 66.6292C234.902 66.6292 234.391 65.8467 234.391 65.0641V63.7226C234.391 62.8282 234.987 62.1575 235.584 62.1575C236.266 62.1575 236.778 62.94 236.778 63.7226V65.0641C236.778 65.9585 236.181 66.741 235.584 66.6292Z" fill="black"/>
<path d="M231.066 69.8713C230.384 69.8713 229.872 69.0888 229.872 68.3062V66.9647C229.872 66.0703 230.469 65.3995 231.066 65.3995C231.748 65.3995 232.259 66.1821 232.259 66.9647V68.3062C232.259 69.2005 231.748 69.9831 231.066 69.8713Z" fill="black"/>
<path d="M231.066 69.8713C230.384 69.8713 229.872 69.0888 229.872 68.3062V66.9647C229.872 66.0703 230.469 65.3995 231.066 65.3995C231.748 65.3995 232.259 66.1821 232.259 66.9647V68.3062C232.259 69.2005 231.748 69.9831 231.066 69.8713Z" fill="black"/>
<path d="M226.546 73.1134C225.864 73.1134 225.353 72.3308 225.353 71.5482V70.2067C225.353 69.3124 225.949 68.6416 226.546 68.6416C227.228 68.6416 227.74 69.4242 227.74 70.2067V71.5482C227.825 72.4426 227.228 73.2252 226.546 73.1134Z" fill="black"/>
<path d="M226.546 73.1134C225.864 73.1134 225.353 72.3308 225.353 71.5482V70.2067C225.353 69.3124 225.949 68.6416 226.546 68.6416C227.228 68.6416 227.74 69.4242 227.74 70.2067V71.5482C227.825 72.4426 227.228 73.2252 226.546 73.1134Z" fill="black"/>
<path d="M222.113 76.3555C221.431 76.3555 220.919 75.5729 220.919 74.7903V73.4488C220.919 72.5544 221.516 71.8837 222.113 71.8837C222.795 71.8837 223.306 72.6662 223.306 73.4488V74.7903C223.306 75.6847 222.795 76.4673 222.113 76.3555Z" fill="black"/>
<path d="M222.113 76.3555C221.431 76.3555 220.919 75.5729 220.919 74.7903V73.4488C220.919 72.5544 221.516 71.8837 222.113 71.8837C222.795 71.8837 223.306 72.6662 223.306 73.4488V74.7903C223.306 75.6847 222.795 76.4673 222.113 76.3555Z" fill="black"/>
<path d="M217.594 79.5974C216.912 79.5974 216.4 78.8148 216.4 78.0323V76.6907C216.4 75.7964 216.997 75.1256 217.594 75.1256C218.276 75.1256 218.788 75.9082 218.788 76.6907V78.0323C218.873 78.9266 218.276 79.7092 217.594 79.5974Z" fill="black"/>
<path d="M217.594 79.5974C216.912 79.5974 216.4 78.8148 216.4 78.0323V76.6907C216.4 75.7964 216.997 75.1256 217.594 75.1256C218.276 75.1256 218.788 75.9082 218.788 76.6907V78.0323C218.873 78.9266 218.276 79.7092 217.594 79.5974Z" fill="black"/>
<path d="M213.16 82.8395C212.477 82.8395 211.966 82.0569 211.966 81.2743V79.9328C211.966 79.0384 212.563 78.3677 213.16 78.3677C213.842 78.3677 214.353 79.1502 214.353 79.9328V81.2743C214.353 82.1687 213.842 82.9512 213.16 82.8395Z" fill="black"/>
<path d="M213.16 82.8395C212.477 82.8395 211.966 82.0569 211.966 81.2743V79.9328C211.966 79.0384 212.563 78.3677 213.16 78.3677C213.842 78.3677 214.353 79.1502 214.353 79.9328V81.2743C214.353 82.1687 213.842 82.9512 213.16 82.8395Z" fill="black"/>
<path d="M208.641 86.0815C207.959 86.0815 207.447 85.299 207.447 84.5164V83.1749C207.447 82.2805 208.044 81.6097 208.641 81.6097C209.323 81.6097 209.835 82.3923 209.835 83.1749V84.5164C209.92 85.4108 209.323 86.1933 208.641 86.0815Z" fill="black"/>
<path d="M208.641 86.0815C207.959 86.0815 207.447 85.299 207.447 84.5164V83.1749C207.447 82.2805 208.044 81.6097 208.641 81.6097C209.323 81.6097 209.835 82.3923 209.835 83.1749V84.5164C209.92 85.4108 209.323 86.1933 208.641 86.0815Z" fill="black"/>
<path d="M204.207 89.3236C203.525 89.3236 203.014 88.541 203.014 87.7585V86.4169C203.014 85.5226 203.611 84.8518 204.207 84.8518C204.89 84.8518 205.401 85.6344 205.401 86.4169V87.7585C205.401 88.6528 204.89 89.4354 204.207 89.3236Z" fill="black"/>
<path d="M204.207 89.3236C203.525 89.3236 203.014 88.541 203.014 87.7585V86.4169C203.014 85.5226 203.611 84.8518 204.207 84.8518C204.89 84.8518 205.401 85.6344 205.401 86.4169V87.7585C205.401 88.6528 204.89 89.4354 204.207 89.3236Z" fill="black"/>
<path d="M199.688 92.5655C199.006 92.5655 198.494 91.783 198.494 91.0004V89.6589C198.494 88.7645 199.091 88.0938 199.688 88.0938C200.37 88.0938 200.882 88.8763 200.882 89.6589V91.0004C200.967 91.8948 200.37 92.6773 199.688 92.5655Z" fill="black"/>
<path d="M199.688 92.5655C199.006 92.5655 198.494 91.783 198.494 91.0004V89.6589C198.494 88.7645 199.091 88.0938 199.688 88.0938C200.37 88.0938 200.882 88.8763 200.882 89.6589V91.0004C200.967 91.8948 200.37 92.6773 199.688 92.5655Z" fill="black"/>
<path d="M195.254 95.8077C194.572 95.8077 194.061 95.0252 194.061 94.2426V92.9011C194.061 92.0067 194.657 91.3359 195.254 91.3359C195.936 91.3359 196.448 92.1185 196.448 92.9011V94.2426C196.448 95.137 195.936 95.9195 195.254 95.8077Z" fill="black"/>
<path d="M195.254 95.8077C194.572 95.8077 194.061 95.0252 194.061 94.2426V92.9011C194.061 92.0067 194.657 91.3359 195.254 91.3359C195.936 91.3359 196.448 92.1185 196.448 92.9011V94.2426C196.448 95.137 195.936 95.9195 195.254 95.8077Z" fill="black"/>
<path d="M190.736 99.0496C190.054 99.0496 189.542 98.2671 189.542 97.4845V96.143C189.542 95.2486 190.139 94.5779 190.736 94.5779C191.418 94.5779 191.929 95.3604 191.929 96.143V97.4845C191.929 98.3789 191.418 99.1614 190.736 99.0496Z" fill="black"/>
<path d="M190.736 99.0496C190.054 99.0496 189.542 98.2671 189.542 97.4845V96.143C189.542 95.2486 190.139 94.5779 190.736 94.5779C191.418 94.5779 191.929 95.3604 191.929 96.143V97.4845C191.929 98.3789 191.418 99.1614 190.736 99.0496Z" fill="black"/>
<path d="M186.302 102.292C185.62 102.292 185.108 101.509 185.108 100.727V99.3851C185.108 98.4907 185.705 97.8199 186.302 97.8199C186.984 97.8199 187.496 98.6025 187.496 99.3851V100.727C187.496 101.621 186.899 102.404 186.302 102.292Z" fill="black"/>
<path d="M186.302 102.292C185.62 102.292 185.108 101.509 185.108 100.727V99.3851C185.108 98.4907 185.705 97.8199 186.302 97.8199C186.984 97.8199 187.496 98.6025 187.496 99.3851V100.727C187.496 101.621 186.899 102.404 186.302 102.292Z" fill="black"/>
<path d="M181.783 105.534C181.1 105.534 180.589 104.751 180.589 103.969V102.627C180.589 101.733 181.186 101.062 181.783 101.062C182.465 101.062 182.976 101.845 182.976 102.627V103.969C182.976 104.863 182.465 105.646 181.783 105.534Z" fill="black"/>
<path d="M181.783 105.534C181.1 105.534 180.589 104.751 180.589 103.969V102.627C180.589 101.733 181.186 101.062 181.783 101.062C182.465 101.062 182.976 101.845 182.976 102.627V103.969C182.976 104.863 182.465 105.646 181.783 105.534Z" fill="black"/>
<path d="M177.349 108.776C176.667 108.776 176.155 107.993 176.155 107.211V105.869C176.155 104.975 176.752 104.304 177.349 104.304C178.031 104.304 178.543 105.087 178.543 105.869V107.211C178.543 108.105 177.946 108.888 177.349 108.776Z" fill="black"/>
<path d="M177.349 108.776C176.667 108.776 176.155 107.993 176.155 107.211V105.869C176.155 104.975 176.752 104.304 177.349 104.304C178.031 104.304 178.543 105.087 178.543 105.869V107.211C178.543 108.105 177.946 108.888 177.349 108.776Z" fill="black"/>
<path d="M172.83 112.018C172.148 112.018 171.637 111.235 171.637 110.453V109.111C171.637 108.217 172.234 107.546 172.83 107.546C173.512 107.546 174.024 108.329 174.024 109.111V110.453C174.024 111.347 173.512 112.13 172.83 112.018Z" fill="black"/>
<path d="M172.83 112.018C172.148 112.018 171.637 111.235 171.637 110.453V109.111C171.637 108.217 172.234 107.546 172.83 107.546C173.512 107.546 174.024 108.329 174.024 109.111V110.453C174.024 111.347 173.512 112.13 172.83 112.018Z" fill="black"/>
<path d="M168.397 115.26C167.715 115.26 167.203 114.477 167.203 113.695V112.353C167.203 111.459 167.8 110.788 168.397 110.788C169.079 110.788 169.591 111.571 169.591 112.353V113.695C169.591 114.589 168.994 115.372 168.397 115.26Z" fill="black"/>
<path d="M168.397 115.26C167.715 115.26 167.203 114.477 167.203 113.695V112.353C167.203 111.459 167.8 110.788 168.397 110.788C169.079 110.788 169.591 111.571 169.591 112.353V113.695C169.591 114.589 168.994 115.372 168.397 115.26Z" fill="black"/>
<path d="M163.877 118.502C163.195 118.502 162.684 117.719 162.684 116.937V115.595C162.684 114.701 163.28 114.03 163.877 114.03C164.559 114.03 165.071 114.813 165.071 115.595V116.937C165.071 117.831 164.559 118.614 163.877 118.502Z" fill="black"/>
<path d="M163.877 118.502C163.195 118.502 162.684 117.719 162.684 116.937V115.595C162.684 114.701 163.28 114.03 163.877 114.03C164.559 114.03 165.071 114.813 165.071 115.595V116.937C165.071 117.831 164.559 118.614 163.877 118.502Z" fill="black"/>
<path d="M159.359 121.744C158.677 121.744 158.165 120.961 158.165 120.179V118.837C158.165 117.943 158.762 117.272 159.359 117.272C160.041 117.272 160.552 118.055 160.552 118.837V120.179C160.638 121.073 160.041 121.856 159.359 121.744Z" fill="black"/>
<path d="M159.359 121.744C158.677 121.744 158.165 120.961 158.165 120.179V118.837C158.165 117.943 158.762 117.272 159.359 117.272C160.041 117.272 160.552 118.055 160.552 118.837V120.179C160.638 121.073 160.041 121.856 159.359 121.744Z" fill="black"/>
<path d="M154.925 124.986C154.243 124.986 153.731 124.203 153.731 123.421V122.079C153.731 121.185 154.328 120.514 154.925 120.514C155.607 120.514 156.119 121.297 156.119 122.079V123.421C156.119 124.315 155.607 125.098 154.925 124.986Z" fill="black"/>
<path d="M154.925 124.986C154.243 124.986 153.731 124.203 153.731 123.421V122.079C153.731 121.185 154.328 120.514 154.925 120.514C155.607 120.514 156.119 121.297 156.119 122.079V123.421C156.119 124.315 155.607 125.098 154.925 124.986Z" fill="black"/>
<path d="M150.406 128.228C149.723 128.228 149.212 127.445 149.212 126.663V125.321C149.212 124.427 149.809 123.756 150.406 123.756C151.088 123.756 151.599 124.539 151.599 125.321V126.663C151.685 127.557 151.088 128.34 150.406 128.228Z" fill="black"/>
<path d="M150.406 128.228C149.723 128.228 149.212 127.445 149.212 126.663V125.321C149.212 124.427 149.809 123.756 150.406 123.756C151.088 123.756 151.599 124.539 151.599 125.321V126.663C151.685 127.557 151.088 128.34 150.406 128.228Z" fill="black"/>
<path d="M145.972 131.47C145.29 131.47 144.778 130.687 144.778 129.905V128.563C144.778 127.669 145.375 126.998 145.972 126.998C146.654 126.998 147.166 127.781 147.166 128.563V129.905C147.166 130.799 146.654 131.582 145.972 131.47Z" fill="black"/>
<path d="M145.972 131.47C145.29 131.47 144.778 130.687 144.778 129.905V128.563C144.778 127.669 145.375 126.998 145.972 126.998C146.654 126.998 147.166 127.781 147.166 128.563V129.905C147.166 130.799 146.654 131.582 145.972 131.47Z" fill="black"/>
<path d="M141.452 134.712C140.77 134.712 140.259 133.93 140.259 133.147V131.805C140.259 130.911 140.856 130.24 141.452 130.24C142.135 130.24 142.646 131.023 142.646 131.805V133.147C142.731 134.041 142.135 134.824 141.452 134.712Z" fill="black"/>
<path d="M141.452 134.712C140.77 134.712 140.259 133.93 140.259 133.147V131.805C140.259 130.911 140.856 130.24 141.452 130.24C142.135 130.24 142.646 131.023 142.646 131.805V133.147C142.731 134.041 142.135 134.824 141.452 134.712Z" fill="black"/>
<path d="M137.019 137.954C136.337 137.954 135.825 137.172 135.825 136.389V135.047C135.825 134.153 136.422 133.482 137.019 133.482C137.701 133.482 138.213 134.265 138.213 135.047V136.389C138.213 137.283 137.701 138.066 137.019 137.954Z" fill="black"/>
<path d="M137.019 137.954C136.337 137.954 135.825 137.172 135.825 136.389V135.047C135.825 134.153 136.422 133.482 137.019 133.482C137.701 133.482 138.213 134.265 138.213 135.047V136.389C138.213 137.283 137.701 138.066 137.019 137.954Z" fill="black"/>
<path d="M132.5 141.196C131.818 141.196 131.307 140.414 131.307 139.631V138.289C131.307 137.395 131.903 136.724 132.5 136.724C133.182 136.724 133.694 137.507 133.694 138.289V139.631C133.779 140.525 133.182 141.308 132.5 141.196Z" fill="black"/>
<path d="M300.044 21.688C300.044 21.688 323.406 3.57735 329.971 0.894287C329.971 0.894287 322.553 1.90044 317.949 3.35376C314.624 4.35991 306.012 11.2912 301.408 15.0922C299.788 16.4337 299.106 19.3403 300.044 21.688Z" fill="black"/>
<path d="M119.284 137.619L74.8613 170.151L66.0791 148.239L59.1727 131.023L56.2738 123.756L55.3359 121.297L52.6927 114.701L50.0495 108.217L47.6621 102.068L55.5064 96.9257L58.9169 94.578L119.284 137.619Z" fill="white"/>
<path d="M113.316 138.513L109.053 141.755C105.813 143.991 103.255 143.991 100.612 141.979L47.9186 102.404L47.748 102.068L55.5923 96.9257L113.316 138.513Z" fill="#2C4E8D"/>
<path d="M90.6362 153.717L86.373 156.959C83.133 159.195 80.5751 159.195 77.9319 157.183L66.0802 148.239L59.1738 131.023L90.6362 153.717Z" fill="#CC4D48"/>
<path d="M101.975 147.121C99.4176 149.246 98.7355 149.357 96.0923 147.345L52.693 114.813L50.0498 108.329L101.975 147.121Z" fill="#2C4E8D"/>
<path d="M95.6664 151.481C94.2169 152.376 93.279 151.481 90.6359 149.469L56.3598 123.756L55.4219 121.297L95.6664 151.481Z" fill="#2C4E8D"/>
<path d="M119.284 137.619L74.8613 170.151L66.0791 148.239L59.1727 131.023L56.2738 123.756L55.3359 121.297L52.6927 114.701L50.0495 108.217L47.6621 102.068L55.5064 96.9257L58.9169 94.578L119.284 137.619Z" stroke="black" stroke-width="2" stroke-miterlimit="10" stroke-linecap="round" stroke-linejoin="round"/>
<path d="M240.274 89.8826C240.274 89.7708 240.274 89.7708 240.274 89.8826C240.359 87.9821 239.421 86.8642 239.421 86.8642C239.421 86.8642 108.285 63.3874 54.1425 55.6736L45.1045 63.052C45.1898 63.2756 155.692 111.012 155.692 111.012L177.349 122.862C176.667 123.98 214.95 109.894 240.188 90.218C240.274 89.9944 240.274 89.8826 240.274 89.8826Z" fill="white" stroke="black" stroke-width="2" stroke-miterlimit="10" stroke-linecap="round" stroke-linejoin="round"/>
<path d="M89.1007 159.866L11.34 150.475C11.34 150.475 0.852539 154.276 0.852539 154.388C0.852539 154.5 0.852539 154.5 0.852539 154.612C0.852539 154.723 67.1879 183.007 67.1879 183.007C67.1879 183.007 71.6216 179.989 76.6522 176.076C84.0701 170.151 92.767 162.325 89.1007 159.866Z" fill="white" stroke="black" stroke-width="2" stroke-miterlimit="10" stroke-linecap="round" stroke-linejoin="round"/>
<path d="M183.914 99.0498C183.914 99.0498 180.759 89.7708 184.255 83.9575C186.983 79.374 208.811 64.3935 208.811 64.3935C208.811 64.3935 216.485 58.2449 222.965 68.6417C229.445 79.0386 222.453 89.2119 222.453 89.2119C222.453 89.2119 192.611 120.067 183.914 99.0498Z" fill="white"/>
<path d="M183.914 99.0498L222.965 69.7596C229.445 80.1565 222.453 89.3237 222.453 89.3237C222.453 89.3237 192.611 120.067 183.914 99.0498Z" fill="#F2F2F2"/>
<path d="M223.221 87.9822C223.221 87.9822 192.611 119.955 183.914 98.938" stroke="black" stroke-width="2" stroke-miterlimit="10" stroke-linecap="round" stroke-linejoin="round"/>
<path d="M183.914 99.0498C183.914 99.0498 180.759 89.7709 184.255 83.9576C188.774 76.4674 210.942 63.8346 210.942 63.8346" stroke="black" stroke-width="2" stroke-miterlimit="10" stroke-linecap="round" stroke-linejoin="round"/>
<path d="M222 88.9226C226.037 85.8663 226.828 77.7539 223.768 70.803C220.707 63.852 214.953 60.6947 210.915 63.751C206.878 66.8072 206.087 74.9196 209.148 81.8706C212.208 88.8215 217.963 91.9788 222 88.9226Z" stroke="black" stroke-width="2" stroke-miterlimit="10"/>
<path d="M219.801 88.0334C223.227 85.4402 223.904 78.57 221.314 72.6885C218.724 66.8069 213.848 64.1411 210.422 66.7343C206.997 69.3275 206.319 76.1976 208.909 82.0792C211.499 87.9608 216.376 90.6265 219.801 88.0334Z" fill="black"/>
<path d="M263.977 156.177C263.977 156.177 261.249 148.128 264.233 143.097C266.62 139.184 285.549 126.104 285.549 126.104C285.549 126.104 292.285 120.738 297.912 129.793C303.54 138.849 297.486 147.68 297.486 147.68C297.486 147.68 271.566 174.511 263.977 156.177Z" fill="white"/>
<path d="M263.978 156.177L297.913 130.688C303.54 139.743 297.486 147.68 297.486 147.68C297.486 147.68 271.566 174.511 263.978 156.177Z" fill="#EBD9DD"/>
<path d="M298.168 146.674C298.168 146.674 271.566 174.511 263.978 156.289" stroke="black" stroke-width="2" stroke-miterlimit="10" stroke-linecap="round" stroke-linejoin="round"/>
<path d="M263.977 156.177C263.977 156.177 261.249 148.127 264.233 143.097C268.155 136.501 287.425 125.545 287.425 125.545" stroke="black" stroke-width="2" stroke-miterlimit="10" stroke-linecap="round" stroke-linejoin="round"/>
<path d="M297.158 147.642C300.665 144.987 301.332 137.894 298.648 131.798C295.964 125.703 290.945 122.914 287.438 125.569C283.931 128.224 283.264 135.317 285.948 141.413C288.632 147.508 293.651 150.297 297.158 147.642Z" stroke="black" stroke-width="2" stroke-miterlimit="10"/>
<path d="M295.252 146.679C298.229 144.425 298.81 138.437 296.55 133.304C294.29 128.171 290.044 125.837 287.067 128.091C284.09 130.344 283.509 136.332 285.769 141.465C288.03 146.598 292.275 148.932 295.252 146.679Z" fill="black"/>
<path d="M217.764 92.6774C213.757 95.6959 207.959 92.5656 204.89 85.6344" stroke="black" stroke-width="2" stroke-miterlimit="10" stroke-linecap="round" stroke-linejoin="round"/>
<path d="M293.25 150.641C290.01 153.1 283.868 151.743 281.48 146.154" stroke="black" stroke-width="2" stroke-miterlimit="10" stroke-linecap="round" stroke-linejoin="round"/>
<path d="M70.2568 64.4458L91.8286 68.0232" stroke="black" stroke-width="2" stroke-miterlimit="10" stroke-linecap="round" stroke-linejoin="round"/>
<path d="M97.6279 69.1412L104.961 70.371" stroke="black" stroke-width="2" stroke-miterlimit="10" stroke-linecap="round" stroke-linejoin="round"/>
<path d="M66.207 163.943L78.9114 165.955" stroke="black" stroke-width="2" stroke-miterlimit="10" stroke-linecap="round" stroke-linejoin="round"/>
<path d="M286.743 173.229L295.184 178.26" stroke="black" stroke-width="2" stroke-miterlimit="10" stroke-linecap="round" stroke-linejoin="round"/>
</g>
<defs>
<clipPath id="clip0_2773_2605">
<rect width="357" height="200" fill="white"/>
</clipPath>
</defs>
</svg>
