<svg width="55" height="36" viewBox="0 0 55 36" fill="none" xmlns="http://www.w3.org/2000/svg">
<rect y="8.87549" width="51.1106" height="26.8696" transform="rotate(-10 0 8.87549)" fill="black"/>
<path d="M46.0701 19.2743C47.4157 19.037 48.3142 17.7539 48.0769 16.4083C47.8396 15.0627 46.5564 14.1642 45.2108 14.4014C43.8652 14.6387 42.9668 15.9219 43.204 17.2675C43.4413 18.6131 44.7245 19.5116 46.0701 19.2743Z" fill="#F4F4F4"/>
<path d="M39.6301 16.3338L38.8047 11.6526L41.4339 10.5182L41.1586 8.95704L38.4147 9.44087L38.0247 7.22916L32.5357 9.58726L32.7651 10.8883C32.2816 10.415 31.5702 10.1843 30.6169 10.3524C29.668 10.5564 28.8146 11.0718 28.1922 11.8165L27.9874 10.6551L22.5032 13.027L22.8369 14.9194L24.2344 15.0022L25.0769 19.7804L23.7866 20.347L24.2079 22.7361L31.5101 21.4485L31.093 19.0831L29.4589 19.0005L28.4274 13.1507L29.0846 12.8665L29.1451 13.2095C29.3649 14.4561 29.8721 15.5203 31.4735 15.2379C33.1601 14.9406 33.7122 13.7286 33.4837 12.3908L34.4229 12.4472L35.2904 17.3673C35.65 19.4064 36.9019 20.8905 39.634 20.4087C41.6612 20.0513 42.5489 18.9582 42.7316 17.587L41.8536 16.4808C41.5006 17.1211 39.8654 17.668 39.6301 16.3338Z" fill="#F4F4F4"/>
<path d="M15.0508 14.4536L14.7914 12.9823L9.30958 15.3537L9.64326 17.2461L11.0408 17.3289L12.6095 26.2255L11.3246 26.7813L11.7454 29.1681C12.9847 28.9203 17.6591 28.1253 19.0405 27.8817L18.6297 25.5517L16.9887 25.4435L16.5812 23.1325C18.1985 25.0985 24.1896 24.0104 23.0455 17.5219C21.9014 11.0335 15.8991 12.0577 15.0508 14.4536ZM16.1411 20.6369L15.4917 16.9539C15.7817 15.9564 17.9816 15.5685 18.4683 18.329C18.9551 21.0895 16.756 21.4821 16.1411 20.6369Z" fill="#F4F4F4"/>
</svg>
