<svg width="30" height="30" viewBox="0 0 30 30" fill="none" xmlns="http://www.w3.org/2000/svg">
<circle cx="15" cy="15" r="14.5" stroke="white"/>
<path fill-rule="evenodd" clip-rule="evenodd" d="M15.5434 7.16043C15.2128 6.94652 14.7875 6.94652 14.4569 7.16043L5.95687 12.6604C5.49319 12.9605 5.36052 13.5796 5.66055 14.0433C5.96058 14.5069 6.57969 14.6396 7.04337 14.3396L8.00012 13.7205V21C8.00012 21.5523 8.44783 22 9.00012 22H21.0001C21.5524 22 22.0001 21.5523 22.0001 21V13.7205L22.9569 14.3396C23.4205 14.6396 24.0397 14.5069 24.3397 14.0433C24.6397 13.5796 24.5071 12.9605 24.0434 12.6604L15.5434 7.16043Z" fill="white"/>
</svg>
