<svg width="695" height="586" viewBox="0 0 695 586" fill="none" xmlns="http://www.w3.org/2000/svg">
<path d="M0 1.77174C31.7279 -1.33156 60.0391 -1.5854 82.2467 11.3277C147.724 49.401 147.724 72.4653 187.989 89.4453C245.564 113.725 259.703 96.5237 317.225 104.124C374.746 111.724 393.636 134.156 427.083 161.483C437.719 170.217 449.055 178.668 462.49 181.767C495.657 189.374 531.484 161.483 562.552 175.288C583.544 184.584 593.48 209.798 613.493 221.349C632.526 232.336 657.856 229.096 676.189 240.647C692.143 250.789 698.581 270.509 691.863 288.257C686.965 301.076 675.909 309.105 664.154 314.598C636.584 327.839 604.956 329.389 575.847 338.967C546.738 348.546 517.629 370.801 516.369 401.509C516.089 409.679 517.769 418.271 515.39 426.159C510.212 443.626 489.08 449.683 471.306 452.923C441.778 458.275 412.389 463.628 382.86 468.981C360.048 473.066 336.957 477.432 316.525 488.419C279.295 508.527 233.59 585.046 196.268 585.046H0V1.77174Z" fill="#DCBEC4"/>
</svg>
