<svg width="1195" height="829" viewBox="0 0 1195 829" fill="none" xmlns="http://www.w3.org/2000/svg">
<path d="M0 0C136.5 97 294 -3.67933 381 46.5C468 96.6793 468 137.621 521.5 160C598 192 616.786 174.601 693.215 184.618C769.644 194.635 794.742 234.743 839.184 270.759C853.316 282.269 868.378 293.408 886.229 297.493C930.298 307.518 977.901 270.759 1019.18 288.953C1047.07 301.206 1060.28 334.437 1086.87 349.66C1112.16 364.14 1145.81 359.87 1170.17 375.094C1191.37 388.46 1199.92 414.451 1191 437.843C1184.49 454.737 1169.8 465.319 1154.18 472.559C1117.55 490.01 1075.52 492.052 1036.85 504.676C998.169 517.301 959.492 546.633 957.818 587.104C957.446 597.872 959.678 609.197 956.517 619.593C949.637 642.613 921.559 650.596 897.943 654.866C858.708 661.921 819.659 668.975 780.424 676.03C750.115 681.414 719.434 687.169 692.285 701.65C642.817 728.151 582.09 829 532.5 829H0C0 829 0 735.066 0 701.65C0 467.766 0 0 0 0Z" fill="#DCBEC4"/>
</svg>
