<svg width="31" height="32" viewBox="0 0 31 32" fill="none" xmlns="http://www.w3.org/2000/svg">
<rect x="0.5" y="0.5" width="29.8693" height="30.231" rx="14.9346" fill="white" stroke="white"/>
<path fill-rule="evenodd" clip-rule="evenodd" d="M24.916 10.7764C24.219 11.0766 23.4711 11.2803 22.6866 11.3712C23.4881 10.903 24.1033 10.1595 24.3911 9.2754C23.6405 9.71054 22.8108 10.0245 21.9275 10.1953C21.2192 9.45993 20.2117 9 19.0942 9C16.9523 9 15.2139 10.6965 15.2139 12.7868C15.2139 13.0842 15.2478 13.3734 15.3155 13.6488C12.0899 13.4918 9.23122 11.9826 7.31788 9.69127C6.98489 10.2503 6.79299 10.9003 6.79299 11.5943C6.79299 12.908 7.47874 14.0674 8.52007 14.7449C7.88511 14.7257 7.28684 14.5549 6.76195 14.2712C6.76195 14.2878 6.76195 14.3015 6.76195 14.3181C6.76195 16.1523 8.09959 17.6835 9.87464 18.0305C9.55011 18.1159 9.20582 18.1627 8.85307 18.1627C8.60191 18.1627 8.35921 18.1379 8.12216 18.0939C8.61602 19.5976 10.0496 20.6937 11.7456 20.724C10.4165 21.7402 8.74583 22.3461 6.92562 22.3461C6.61238 22.3461 6.30478 22.3268 6 22.2938C7.71579 23.3679 9.75611 23.9958 11.9488 23.9958C19.0857 23.9958 22.9886 18.2261 22.9886 13.222C22.9886 13.0567 22.9858 12.8942 22.9773 12.7317C23.7364 12.1974 24.3939 11.531 24.9132 10.7709L24.916 10.7764Z" fill="var(--accent-background-color)"/>
</svg>
