<svg width="31" height="32" viewBox="0 0 31 32" fill="none" xmlns="http://www.w3.org/2000/svg">
<rect x="0.5" y="0.5" width="29.8693" height="30.2309" rx="14.9346" fill="white" stroke="white"/>
<path fill-rule="evenodd" clip-rule="evenodd" d="M16.1907 23.8935C21.1971 23.8935 25.2548 19.943 25.2548 15.0698C25.2548 10.1965 21.1975 6.24609 16.1907 6.24609C11.1846 6.24609 7.12649 10.1965 7.12649 15.0698C7.12649 16.7369 7.60183 18.2963 8.42715 19.6258L7.11424 23.4249C6.9803 23.8124 7.34415 24.1876 7.73562 24.0655L11.8093 22.7956C13.1083 23.495 14.6014 23.8935 16.1907 23.8935ZM20.4233 17.1081C20.5787 17.1813 20.6837 17.2307 20.7289 17.3032C20.7841 17.3934 20.7841 17.8263 20.5995 18.3319C20.4136 18.8367 19.5064 19.3237 19.0994 19.3598C19.0296 19.366 18.9718 19.3796 18.9125 19.3935C18.6257 19.4611 18.305 19.5365 16.433 18.8192C14.3457 18.0188 12.9698 16.0323 12.6855 15.6218C12.6621 15.588 12.6461 15.565 12.6377 15.554L12.6373 15.5536C12.5246 15.4077 11.7305 14.3805 11.7305 13.3174C11.7305 12.3217 12.2329 11.7995 12.4642 11.5591C12.4801 11.5425 12.4948 11.5273 12.5078 11.5134C12.7116 11.2971 12.9524 11.2429 13.1005 11.2429C13.1771 11.2429 13.2537 11.2478 13.3277 11.2524C13.3969 11.2568 13.4639 11.261 13.5264 11.261C13.542 11.261 13.5583 11.26 13.5753 11.2589C13.7005 11.251 13.8633 11.2407 14.0262 11.6217C14.0855 11.7605 14.1715 11.9642 14.2628 12.1804C14.4563 12.6388 14.6737 13.1538 14.7114 13.2272C14.7672 13.3357 14.8043 13.4619 14.7298 13.6062C14.7193 13.6269 14.7094 13.6466 14.7 13.6654C14.644 13.7773 14.6033 13.8588 14.5079 13.9671C14.4711 14.0089 14.4331 14.0539 14.395 14.099C14.3183 14.1899 14.2414 14.281 14.1745 14.3458C14.0635 14.4535 13.9476 14.5704 14.077 14.7868C14.2067 15.0036 14.6527 15.7112 15.3131 16.2844C16.0235 16.901 16.6407 17.1617 16.9532 17.2937C17.0141 17.3193 17.0634 17.3402 17.0996 17.3578C17.3219 17.4661 17.4514 17.4479 17.581 17.3032C17.7109 17.1589 18.1368 16.6721 18.2847 16.4555C18.4326 16.2391 18.5812 16.2754 18.7849 16.3474C18.988 16.4193 20.0806 16.9428 20.303 17.0508C20.3459 17.0717 20.3861 17.0906 20.4233 17.1081Z" fill="var(--accent-background-color)"/>
</svg>
