<svg width="31" height="32" viewBox="0 0 31 32" fill="none" xmlns="http://www.w3.org/2000/svg">
<rect x="0.500977" y="1.229" width="29.8693" height="29.8693" rx="14.9346" fill="white" stroke="white"/>
<path d="M13.3733 11.2901C13.3733 11.7003 13.3733 13.5312 13.3733 13.5312H11.7314V16.2716H13.3733V24.4152H16.7461V16.2719H19.0094C19.0094 16.2719 19.2214 14.9579 19.3242 13.5211C19.0296 13.5211 16.7589 13.5211 16.7589 13.5211C16.7589 13.5211 16.7589 11.9268 16.7589 11.6474C16.7589 11.3673 17.1266 10.9906 17.4901 10.9906C17.8529 10.9906 18.6186 10.9906 19.3277 10.9906C19.3277 10.6175 19.3277 9.32833 19.3277 8.1377C18.381 8.1377 17.3039 8.1377 16.8292 8.1377C13.29 8.13751 13.3733 10.8806 13.3733 11.2901Z" fill="var(--accent-background-color)"/>
</svg>
