<svg width="31" height="32" viewBox="0 0 31 32" fill="none" xmlns="http://www.w3.org/2000/svg">
<g clip-path="url(#clip0)">
<rect x="0.5" y="0.5" width="29.8693" height="30.2309" rx="14.9346" stroke="white"/>
<path fill-rule="evenodd" clip-rule="evenodd" d="M20.1813 15.8221C20.2557 15.5176 20.6879 14.8457 21.4793 13.8081C22.3942 12.4796 22.7899 11.6427 22.6665 11.2974C22.5921 11.1375 22.4449 11.0575 22.2217 11.0575H21.8513H19.4769C19.4025 11.0575 19.3345 11.0847 19.2727 11.1375C19.211 11.1919 19.154 11.2446 19.1049 11.2974L19.0685 11.3773L18.8089 12.0152C18.6602 12.4132 18.4623 12.8521 18.2154 13.3301C17.7199 14.235 17.3495 14.7862 17.1026 14.9852C16.8541 15.1842 16.6942 15.2438 16.6198 15.1638C16.4473 15.0056 16.3539 14.7658 16.3412 14.446C16.3285 14.1279 16.3222 13.8081 16.3222 13.49C16.3475 12.6123 16.3602 11.9557 16.3602 11.5168C16.3602 11.0779 16.1861 10.8194 15.841 10.7394C15.7159 10.7122 15.5814 10.6867 15.4326 10.6595C15.2838 10.6323 15.0622 10.6187 14.7646 10.6187C14.3436 10.6187 13.9732 10.6323 13.6518 10.6595C13.3305 10.6867 13.0583 10.7394 12.8351 10.8194C12.7116 10.9248 12.6135 11.032 12.5391 11.1375C12.4647 11.2446 12.4647 11.2974 12.5391 11.2974C12.6135 11.2974 12.7179 11.3246 12.8541 11.3773C12.9902 11.43 13.1073 11.5236 13.207 11.6563C13.3052 11.8689 13.3669 12.1088 13.3922 12.3741L13.4287 12.7722V13.8693C13.4287 14.5208 13.3178 14.9512 13.0947 15.1638C12.9474 15.271 12.748 15.191 12.5011 14.9257C12.2541 14.6603 11.9075 14.1143 11.4627 13.291C11.2158 12.8385 11.0179 12.4268 10.8691 12.0543L10.5731 11.3773C10.5478 11.2974 10.5034 11.231 10.4433 11.1783C10.38 11.1239 10.3135 11.0847 10.2391 11.0575H10.0903H7.90115H7.71595C7.61623 11.0847 7.5355 11.1307 7.47535 11.197C7.41203 11.2633 7.39462 11.3501 7.41837 11.4573L7.45636 11.5763C7.4801 11.709 7.84575 12.5136 8.55014 13.9884C9.25612 15.4632 10.103 16.7985 11.0923 17.9943C12.0309 18.952 12.8857 19.4963 13.6518 19.629C14.418 19.7634 14.8264 19.8025 14.8754 19.7498L15.9518 19.7889C16.0499 19.7889 16.137 19.7498 16.2114 19.6698C16.2858 19.5899 16.3222 19.5099 16.3222 19.43L16.3602 19.35C16.3349 19.2973 16.3475 19.0643 16.3966 18.6526C16.4473 18.241 16.6071 17.9688 16.8794 17.8361C17.1516 17.7817 17.4666 17.9892 17.826 18.4536C18.1837 18.918 18.5604 19.3245 18.9577 19.6698C19.2284 19.8552 19.5624 19.9624 19.9581 19.9879L21.9985 19.9488C22.0491 19.976 22.2027 19.9284 22.4623 19.8093C22.7219 19.6885 22.7535 19.4164 22.5557 18.9911C22.5557 18.9384 22.4496 18.7598 22.2407 18.4536C22.0302 18.1474 21.6281 17.6898 21.0345 17.0775C20.3918 16.5467 20.1069 16.1283 20.1813 15.8221Z" fill="white"/>
</g>
<defs>
<clipPath id="clip0">
<rect width="30.8693" height="31.2309" fill="white"/>
</clipPath>
</defs>
</svg>
