<svg width="31" height="32" viewBox="0 0 31 32" fill="none" xmlns="http://www.w3.org/2000/svg">
<rect x="0.5" y="0.5" width="29.8693" height="30.2307" rx="14.9346" fill="white" stroke="white"/>
<path fill-rule="evenodd" clip-rule="evenodd" d="M12.6299 17.6535L12.6296 17.6533L12.63 17.6529L12.63 17.6529L12.63 17.6529L19.6566 11.4753C19.965 11.2087 19.5892 11.0786 19.1798 11.3205L10.5076 16.6508L6.76163 15.5117C5.95267 15.2704 5.94686 14.7288 6.94325 14.3395L21.5404 8.85593C22.207 8.56105 22.8505 9.01193 22.596 10.006L20.1101 21.4187C19.9365 22.2297 19.4336 22.4236 18.7367 22.049L14.9499 19.3234L13.1298 21.0476C13.124 21.0531 13.1183 21.0585 13.1127 21.0639C12.9091 21.257 12.7406 21.4167 12.3721 21.4167L12.6299 17.6535Z" fill="var(--accent-background-color)"/>
</svg>
