<svg width="504" height="465" viewBox="0 0 504 465" fill="none" xmlns="http://www.w3.org/2000/svg">
<path d="M251.203 77.5326L252 78.5858L252.797 77.5326C262.105 65.2366 278.256 46.0799 299.025 30.0055C319.803 13.9244 345.109 1 372.75 1C444.453 1 503 67.3973 503 149.276C503 186.542 490.706 222.098 468.35 249.652L468.287 249.729L468.241 249.817C467.807 250.644 467.243 251.409 466.556 252.091L466.535 252.111L466.516 252.133C464.728 254.126 463.13 255.684 461.496 257.236L461.486 257.245L459.415 259.268L459.41 259.274L459.404 259.279L258.715 461.199C256.858 463.067 254.43 464 252 464C249.571 464 247.152 463.068 245.294 461.207L51.0661 266.121C50.48 265.531 49.9793 264.878 49.573 264.171L49.4968 264.038L49.3845 263.935C18.6059 235.496 1 193.92 1 149.276C1 67.3973 59.5478 1 131.25 1C158.891 1 184.197 13.9244 204.975 30.0055C225.744 46.0799 241.894 65.2366 251.203 77.5326Z" stroke="white" stroke-width="2"/>
<circle cx="51.735" cy="34.735" r="27.735" fill="white"/>
<rect width="83.5757" height="35.3327" rx="17.6663" transform="matrix(0.685365 -0.7282 -0.7282 -0.685365 317.932 425.076)" fill="#CC4D47"/>
<rect x="-0.0428356" y="-1.41356" width="53.8487" height="33.3327" rx="16.6663" transform="matrix(0.685365 -0.7282 -0.7282 -0.685365 298.687 407.471)" stroke="white" stroke-width="2"/>
<rect width="60.8419" height="35.3327" rx="17.6663" transform="matrix(0.685365 -0.7282 -0.7282 -0.685365 449.729 75.521)" fill="#2C4E8D"/>
</svg>
