<svg width="26" height="24" viewBox="0 0 26 24" fill="none" xmlns="http://www.w3.org/2000/svg">
<path d="M19.2292 0C16.3452 0 13.9633 2.69744 13 3.97053C12.0367 2.69744 9.65478 0 6.77082 0C3.03738 0 0 3.45651 0 7.70455C0 10.0222 0.913555 12.1821 2.51261 13.6603C2.53586 13.7008 2.56445 13.7381 2.59777 13.7717L12.6176 23.8407C12.7233 23.9467 12.8614 24 13 24C13.1386 24 13.2772 23.9467 13.383 23.8402L23.736 13.4185L23.8429 13.3141C23.9275 13.2337 24.0111 13.1522 24.1047 13.0478C24.1438 13.0089 24.1761 12.9652 24.201 12.9178C25.3621 11.486 26 9.63919 26 7.70455C26 3.45651 22.9627 0 19.2292 0Z" fill="black"/>
<path d="M7 4C5.3458 4 4 5.79453 4 8" stroke="white" stroke-width="2" stroke-linecap="round" stroke-linejoin="round"/>
</svg>
